G04 DipTrace Beta 2.3.5.2*
%INLulfroMini.GBS*%
%MOIN*%
%ADD22R,0.025X0.05*%
%ADD24R,0.0354X0.0276*%
%ADD25R,0.0276X0.0354*%
%ADD39R,0.058X0.011*%
%ADD40R,0.011X0.058*%
%ADD47R,0.0434X0.0434*%
%ADD55C,0.0709*%
%ADD57R,0.0709X0.0709*%
%FSLAX44Y44*%
G04*
G70*
G90*
G75*
G01*
%LNBotMask*%
%LPD*%
D22*
X3820Y4970D3*
X4174D3*
D25*
X4100Y290D3*
X3588D3*
D24*
X3320Y4320D3*
Y4832D3*
X7470Y3800D3*
Y3288D3*
D25*
X7370Y690D3*
X6858D3*
D57*
X10125Y625D3*
D55*
X9125D3*
X10125Y1625D3*
X9125D3*
X10125Y2625D3*
X9125D3*
X10125Y3625D3*
X9125D3*
X10125Y4625D3*
X9125D3*
X8125Y625D3*
Y1625D3*
Y2625D3*
Y3625D3*
Y4625D3*
D57*
X625D3*
D55*
X1625D3*
X625Y3625D3*
X1625D3*
X625Y2625D3*
X1625D3*
X625Y1625D3*
X1625D3*
X625Y625D3*
X1625D3*
X2625Y4625D3*
Y3625D3*
Y2625D3*
Y1625D3*
Y625D3*
D25*
X5380Y290D3*
X4868D3*
X4820Y5020D3*
X5332D3*
D47*
X6480Y5010D3*
X5980D3*
D39*
X6860Y3570D3*
Y3373D3*
Y3176D3*
Y2979D3*
Y2783D3*
Y2586D3*
Y2389D3*
Y2192D3*
Y1995D3*
Y1798D3*
Y1601D3*
Y1405D3*
D40*
X6283Y827D3*
X6086D3*
X5889D3*
X5692D3*
X5495D3*
X5298D3*
X5102D3*
X4905D3*
X4708D3*
X4511D3*
X4314D3*
X4117D3*
D39*
X3540Y1405D3*
Y1601D3*
Y1798D3*
Y1995D3*
Y2192D3*
Y2389D3*
Y2586D3*
Y2783D3*
Y2979D3*
Y3176D3*
Y3373D3*
Y3570D3*
D40*
X4117Y4147D3*
X4314D3*
X4511D3*
X4708D3*
X4905D3*
X5102D3*
X5298D3*
X5495D3*
X5692D3*
X5889D3*
X6086D3*
X6283D3*
M02*
