G04 DipTrace Beta 2.3.5.2*
%INLulfroMini.GTO*%
%MOIN*%
%ADD19C,0.008*%
%ADD71C,0.0046*%
%ADD72C,0.0062*%
%FSLAX44Y44*%
G04*
G70*
G90*
G75*
G01*
%LNTop TopSilk*%
%LPD*%
G36*
X190Y5080D2*
X1090D1*
Y170D1*
X190D1*
Y5080D1*
G37*
X1070Y5040D2*
D19*
X2130D1*
Y1150D1*
X1070D1*
Y5040D1*
G36*
X7730Y3100D2*
X10610D1*
Y2180D1*
X7730D1*
Y3100D1*
G37*
X8630Y2230D2*
D19*
Y130D1*
X9590D1*
Y1210D1*
X10570D1*
Y2190D1*
X8630D1*
G36*
X9610Y1200D2*
X10610D1*
Y90D1*
X9610D1*
Y1200D1*
G37*
X7500Y273D2*
D71*
Y402D1*
X7485Y445D1*
X7471Y460D1*
X7442Y474D1*
X7399D1*
X7371Y460D1*
X7356Y445D1*
X7342Y402D1*
Y273D1*
X7643D1*
X7500Y567D2*
Y696D1*
X7485Y739D1*
X7471Y753D1*
X7442Y768D1*
X7399D1*
X7371Y753D1*
X7356Y739D1*
X7342Y696D1*
Y567D1*
X7643D1*
Y1090D2*
X7342D1*
X7643Y975D1*
X7342Y860D1*
X7643D1*
X3235Y1442D2*
D72*
Y1844D1*
X3044Y1576D1*
X3331D1*
X3104Y4817D2*
X3142Y4837D1*
X3200Y4894D1*
Y4492D1*
X3378Y987D2*
D71*
X3077Y872D1*
X3378Y757D1*
X3227Y665D2*
Y499D1*
X3307Y191D2*
X3335Y205D1*
X3364Y234D1*
X3378Y263D1*
Y320D1*
X3364Y349D1*
X3335Y377D1*
X3307Y392D1*
X3264Y406D1*
X3192D1*
X3149Y392D1*
X3120Y377D1*
X3091Y349D1*
X3077Y320D1*
Y263D1*
X3091Y234D1*
X3120Y205D1*
X3149Y191D1*
M02*
