G04 DipTrace Beta 2.3.5.2*
%INLulfroMini.GTS*%
%MOIN*%
%ADD23R,0.0354X0.0276*%
%ADD24R,0.0276X0.0354*%
%ADD27R,0.0394X0.0433*%
%ADD28R,0.0315X0.0315*%
%ADD29R,0.0217X0.0472*%
%ADD49R,0.0473X0.0276*%
%ADD51O,0.0158X0.0375*%
%ADD53O,0.0375X0.0158*%
%ADD55C,0.0709*%
%ADD57R,0.0709X0.0709*%
%FSLAX44Y44*%
G04*
G70*
G90*
G75*
G01*
%LNTopMask*%
%LPD*%
D23*
X3400Y4020D3*
Y3508D3*
X3600Y4350D3*
Y4862D3*
D24*
X5910Y3210D3*
X6422D3*
X5320Y850D3*
X4808D3*
X4320Y3420D3*
X3808D3*
D23*
X3224Y2606D3*
Y2094D3*
D27*
X5190Y4980D3*
Y4311D3*
D24*
X5370Y3390D3*
X4858D3*
D28*
X6750Y4375D3*
X7341D3*
X6750Y4875D3*
X7341D3*
D29*
X3970Y3960D3*
X4344D3*
X4718D3*
Y4984D3*
X3970D3*
D57*
X10125Y625D3*
D55*
X9125D3*
X10125Y1625D3*
X9125D3*
X10125Y2625D3*
X9125D3*
X10125Y3625D3*
X9125D3*
X10125Y4625D3*
X9125D3*
X8125Y625D3*
Y1625D3*
Y2625D3*
Y3625D3*
Y4625D3*
D57*
X625D3*
D55*
X1625D3*
X625Y3625D3*
X1625D3*
X625Y2625D3*
X1625D3*
X625Y1625D3*
X1625D3*
X625Y625D3*
X1625D3*
X2625Y4625D3*
Y3625D3*
Y2625D3*
Y1625D3*
Y625D3*
D53*
X5190Y1710D3*
Y1907D3*
Y2104D3*
Y2301D3*
Y2497D3*
Y2694D3*
D51*
X4934Y2950D3*
X4737D3*
X4540D3*
X4344D3*
X4147D3*
X3950D3*
D53*
X3694Y2694D3*
Y2497D3*
Y2301D3*
Y2104D3*
Y1907D3*
Y1710D3*
D51*
X3950Y1454D3*
X4147D3*
X4344D3*
X4540D3*
X4737D3*
X4934D3*
D49*
X5750Y2750D3*
Y2258D3*
Y1766D3*
Y1274D3*
X6616D3*
Y1766D3*
Y2258D3*
Y2750D3*
D24*
X5880Y4920D3*
X6392D3*
D23*
X7380Y3420D3*
Y3932D3*
X6900Y3420D3*
Y3932D3*
D24*
X3640Y820D3*
X4152D3*
X4150Y360D3*
X3638D3*
X6510Y330D3*
X7022D3*
X5320Y410D3*
X4808D3*
X5870Y4390D3*
X6382D3*
G36*
X7710Y2612D2*
Y2888D1*
X7040D1*
Y2612D1*
X7710D1*
G37*
G36*
Y2140D2*
Y2415D1*
X7040D1*
Y2140D1*
X7710D1*
G37*
G36*
Y1667D2*
Y1943D1*
X7040D1*
Y1667D1*
X7710D1*
G37*
M02*
