M48
INCH
T01C0.01
T02C0.0433
%
T01
X+007710Y+003000
X+007790Y+002010
X+007545Y+001395
X+007050Y+001260
X+006620Y+001040
X+007090Y+000690
X+006090Y+000500
X+005600Y+000380
X+005190Y+001260
X+004720Y+001200
X+004511Y+000490
X+003890Y+001090
X+003040Y+001330
X+003110Y+002050
X+002300Y+002980
X+002060Y+003010
X+002950Y+004170
X+003140Y+004020
X+003090Y+005090
X+004460Y+005050
X+004511Y+004531
X+005102Y+003800
X+005460Y+003710
X+005680Y+003550
X+005930Y+003540
X+005890Y+003210
X+006190Y+003190
X+006270Y+002750
X+006290Y+002500
X+006070Y+002290
X+006090Y+002010
X+006110Y+001710
X+006298Y+001530
X+005750Y+001540
X+005090Y+003390
X+004040Y+003420
X+005610Y+005040
X+006090Y+004550
X+007600Y+004870
T02
X+010125Y+000625
X+009125Y+000625
X+008125Y+000625
X+008125Y+001625
X+009125Y+001625
X+009125Y+002625
X+009125Y+003625
X+008125Y+003625
X+008125Y+002625
X+010125Y+002625
X+010125Y+001625
X+010125Y+003625
X+010125Y+004625
X+009125Y+004625
X+008125Y+004625
X+002625Y+004625
X+001625Y+004625
X+001625Y+003625
X+001625Y+002625
X+001625Y+001625
X+002625Y+001625
X+002625Y+002625
X+002625Y+003625
X+000625Y+003625
X+000625Y+002625
X+000625Y+001625
X+000625Y+000625
X+001625Y+000625
X+002625Y+000625
X+000625Y+004625
T00
M30
