G04 DipTrace Beta 2.3.5.2*
%INLulfroMini.GBO*%
%MOIN*%
%ADD17C,0.014*%
%ADD20C,0.005*%
%ADD71C,0.0046*%
%FSLAX44Y44*%
G04*
G70*
G90*
G75*
G01*
%LNBottom BottomSilk*%
%LPD*%
X3660Y5260D2*
D20*
X4330D1*
Y4680D1*
X3660D1*
Y5260D1*
X3780Y3930D2*
X6630D1*
Y1050D1*
X3780D1*
Y3930D1*
X6290Y3730D2*
X6450Y3600D1*
D17*
X6580Y4100D3*
X6852Y4190D2*
D71*
X7153D1*
X6852Y4291D2*
Y4090D1*
Y3997D2*
X7153Y3796D1*
X6852D2*
X7153Y3997D1*
X5725Y4555D2*
X5696Y4569D1*
X5682Y4612D1*
Y4641D1*
X5696Y4684D1*
X5739Y4713D1*
X5811Y4727D1*
X5883D1*
X5940Y4713D1*
X5969Y4684D1*
X5983Y4641D1*
Y4627D1*
X5969Y4584D1*
X5940Y4555D1*
X5897Y4541D1*
X5883D1*
X5840Y4555D1*
X5811Y4584D1*
X5797Y4627D1*
Y4641D1*
X5811Y4684D1*
X5840Y4713D1*
X5883Y4727D1*
X6312Y4570D2*
Y4713D1*
X6441Y4727D1*
X6427Y4713D1*
X6412Y4670D1*
Y4627D1*
X6427Y4584D1*
X6455Y4555D1*
X6498Y4541D1*
X6527D1*
X6570Y4555D1*
X6599Y4584D1*
X6613Y4627D1*
Y4670D1*
X6599Y4713D1*
X6584Y4727D1*
X6556Y4742D1*
X7105Y5031D2*
Y4902D1*
X7091Y4858D1*
X7076Y4844D1*
X7048Y4830D1*
X7019D1*
X6991Y4844D1*
X6976Y4858D1*
X6962Y4902D1*
Y5031D1*
X7263D1*
X7105Y4930D2*
X7263Y4830D1*
X6962Y4737D2*
X7263Y4536D1*
X6962D2*
X7263Y4737D1*
M02*
