G04 DipTrace Beta 2.3.5.2*
%INLulfroMini.GBO*%
%MOIN*%
%ADD20C,0.005*%
%ADD71C,0.0046*%
%FSLAX44Y44*%
G04*
G70*
G90*
G75*
G01*
%LNBottom BottomSilk*%
%LPD*%
X3660Y5260D2*
D20*
X4330D1*
Y4680D1*
X3660D1*
Y5260D1*
X6912Y5009D2*
D71*
X7213D1*
X6912Y5109D2*
Y4908D1*
Y4816D2*
X7213Y4615D1*
X6912D2*
X7213Y4816D1*
X7055Y4231D2*
Y4102D1*
X7041Y4058D1*
X7026Y4044D1*
X6998Y4030D1*
X6969D1*
X6941Y4044D1*
X6926Y4058D1*
X6912Y4102D1*
Y4231D1*
X7213D1*
X7055Y4130D2*
X7213Y4030D1*
X6912Y3937D2*
X7213Y3736D1*
X6912D2*
X7213Y3937D1*
X5725Y4555D2*
X5696Y4569D1*
X5682Y4612D1*
Y4641D1*
X5696Y4684D1*
X5739Y4713D1*
X5811Y4727D1*
X5883D1*
X5940Y4713D1*
X5969Y4684D1*
X5983Y4641D1*
Y4627D1*
X5969Y4584D1*
X5940Y4555D1*
X5897Y4541D1*
X5883D1*
X5840Y4555D1*
X5811Y4584D1*
X5797Y4627D1*
Y4641D1*
X5811Y4684D1*
X5840Y4713D1*
X5883Y4727D1*
X6312Y4570D2*
Y4713D1*
X6441Y4727D1*
X6427Y4713D1*
X6412Y4670D1*
Y4627D1*
X6427Y4584D1*
X6455Y4555D1*
X6498Y4541D1*
X6527D1*
X6570Y4555D1*
X6599Y4584D1*
X6613Y4627D1*
Y4670D1*
X6599Y4713D1*
X6584Y4727D1*
X6556Y4742D1*
M02*
